# xmcd
#
# Track frame offsets:
#	150
#	18458
#	39238
#	56176
#	74922
#	92199
#	136018
#	150414
#	170124
#	226179
#	244528
#	265333
#	283261
#
# Disc length: 4159 seconds
#
# Revision: 3
# Processed by: cddbd v1.5.2PL0 Copyright (c) Steve Scherf et al.
# Submitted via: EasyCDDAExtractor 15.3.0.1
#
DISCID=b7103d0d
DTITLE=Ednita Nazario - Apasionada Live - CD 1
DYEAR=2006
DGENRE=Latin
TTITLE0=Sobrevivo
TTITLE1=Lloviendo Flores
TTITLE2=A Que No Te Vas
TTITLE3=Por Ti
TTITLE4=Mariposa
TTITLE5=Medley 1 (Ese Muchacho, Hielo Bajo El Sol, Mas Grande Que Grande)
TTITLE6=Cansada De Estar Cansada
TTITLE7=Mas Mala Que Tu
TTITLE8=Medley 2 (Cadenas De Fuego, Lo Que Son Las Cosas, El Dolor De Tu Prese
TTITLE8=ncia, A Que No Le Cuentas)
TTITLE9=Te Quedaras Hundido
TTITLE10=Agua Profunda
TTITLE11=Ni Heroes Ni Vencidos
TTITLE12=Calor
EXTD=
EXTT0=
EXTT1=
EXTT2=
EXTT3=
EXTT4=
EXTT5=
EXTT6=
EXTT7=
EXTT8=
EXTT9=
EXTT10=
EXTT11=
EXTT12=
PLAYORDER=
